<svg width="512" height="512" viewBox="0 0 512 512" fill="none" xmlns="http://www.w3.org/2000/svg">
<path fill-rule="evenodd" clip-rule="evenodd" d="M416 101.714C416 98.5584 413.442 96 410.286 96H101.714C98.5584 96 96 98.5584 96 101.714V181.714C96 184.87 98.5584 187.429 101.714 187.429H410.286C413.442 187.429 416 184.87 416 181.714V101.714ZM158.857 118.857H124.571C121.416 118.857 118.857 121.416 118.857 124.571V158.857C118.857 162.013 121.416 164.571 124.571 164.571H158.857C162.013 164.571 164.571 162.013 164.571 158.857V124.571C164.571 121.416 162.013 118.857 158.857 118.857Z" fill="#30D158"/>
<path fill-rule="evenodd" clip-rule="evenodd" d="M416 216C416 212.844 413.442 210.286 410.286 210.286H101.714C98.5584 210.286 96 212.844 96 216V296C96 299.156 98.5584 301.714 101.714 301.714H410.286C413.442 301.714 416 299.156 416 296V216ZM158.857 233.143H124.571C121.416 233.143 118.857 235.701 118.857 238.857V273.143C118.857 276.299 121.416 278.857 124.571 278.857H158.857C162.013 278.857 164.571 276.299 164.571 273.143V238.857C164.571 235.701 162.013 233.143 158.857 233.143Z" fill="#30D158"/>
<path fill-rule="evenodd" clip-rule="evenodd" d="M416 330.286C416 327.13 413.442 324.571 410.286 324.571H101.714C98.5584 324.571 96 327.13 96 330.286V410.286C96 413.442 98.5584 416 101.714 416H410.286C413.442 416 416 413.442 416 410.286V330.286ZM158.857 347.429H124.571C121.416 347.429 118.857 349.987 118.857 353.143V387.429C118.857 390.584 121.416 393.143 124.571 393.143H158.857C162.013 393.143 164.571 390.584 164.571 387.429V353.143C164.571 349.987 162.013 347.429 158.857 347.429Z" fill="#30D158"/>
</svg>
