<svg width="512" height="512" viewBox="0 0 512 512" fill="none" xmlns="http://www.w3.org/2000/svg">
<path fill-rule="evenodd" clip-rule="evenodd" d="M480 40C480 35.5817 476.418 32 472 32H40C35.5817 32 32 35.5817 32 40V152C32 156.418 35.5817 160 40 160H472C476.418 160 480 156.418 480 152V40ZM120 64H72C67.5817 64 64 67.5817 64 72V120C64 124.418 67.5817 128 72 128H120C124.418 128 128 124.418 128 120V72C128 67.5817 124.418 64 120 64Z" fill="#E1E1E1"/>
<path fill-rule="evenodd" clip-rule="evenodd" d="M480 200C480 195.582 476.418 192 472 192H40C35.5817 192 32 195.582 32 200V312C32 316.418 35.5817 320 40 320H472C476.418 320 480 316.418 480 312V200ZM120 224H72C67.5817 224 64 227.582 64 232V280C64 284.418 67.5817 288 72 288H120C124.418 288 128 284.418 128 280V232C128 227.582 124.418 224 120 224Z" fill="#E1E1E1"/>
<path fill-rule="evenodd" clip-rule="evenodd" d="M480 360C480 355.582 476.418 352 472 352H40C35.5817 352 32 355.582 32 360V472C32 476.418 35.5817 480 40 480H472C476.418 480 480 476.418 480 472V360ZM120 384H72C67.5817 384 64 387.582 64 392V440C64 444.418 67.5817 448 72 448H120C124.418 448 128 444.418 128 440V392C128 387.582 124.418 384 120 384Z" fill="#E1E1E1"/>
</svg>
